<?xml version="1.0" standalone="no"?><!DOCTYPE svg PUBLIC "-//W3C//DTD SVG 1.1//EN" "http://www.w3.org/Graphics/SVG/1.1/DTD/svg11.dtd"><svg t="1632064734607" class="icon" viewBox="0 0 1024 1024" version="1.1" xmlns="http://www.w3.org/2000/svg" p-id="2419" xmlns:xlink="http://www.w3.org/1999/xlink" width="200" height="200"><defs><style type="text/css"></style></defs><path d="M761.892 951H259.108C153.179 951 67 864.898 67 759.066V256.283C67 150.258 153.179 64 259.108 64H511.25c16.577 0 30.017 13.423 30.017 30s-13.439 30-30.017 30H259.108C186.282 124 127 183.36 127 256.283v502.783C127 831.796 186.282 891 259.108 891h502.783C834.718 891 894 831.796 894 759.066V538.267c0-16.577 13.423-30.017 30-30.017 16.578 0 30 13.439 30 30.017v220.799C954 864.898 867.821 951 761.892 951z" fill="#1296db" p-id="2420"></path><path d="M564.987 585.556l-135.37 16.509 16.509-135.37 356.583-356.583c32.823-32.823 86.038-32.823 118.861 0 32.823 32.823 32.823 86.038 0 118.861L564.987 585.556z" fill="#1296db" p-id="2421"></path></svg>