<svg xmlns="http://www.w3.org/2000/svg" xmlns:xlink="http://www.w3.org/1999/xlink" width="24.00018310546875" height="32.00030517578125" viewBox="0 0 24.00018310546875 32.00030517578125" fill="none"><defs><linearGradient id="linear_0" x1="50%" y1="100%" x2="51%" y2="0%" gradientUnits="objectBoundingBox"><stop offset="0" stop-color="#0FCABA" stop-opacity="1" /><stop offset="1" stop-color="#4FFFF1" stop-opacity="1" /></linearGradient></defs><g opacity="1" transform="translate(0 0.00030517578125)  rotate(0 12 16)"><g opacity="1" transform="translate(0 0)  rotate(0 12 16)"><g opacity="1" transform="translate(0 0)  rotate(0 12 16)"><path id="路径 47" fill-rule="evenodd" style="fill:#000000" transform="translate(0 4)  rotate(0 12 14)" opacity="1" d="M24 0L24 28L0 28L0 0L4.02 0L4.02 2L2 2L2 26L22 26L22 2L19.92 2L19.92 0L24 0Z" /><path id="路径 48" fill-rule="evenodd" style="fill:#000000" transform="translate(6.034999847412109 0)  rotate(0 5.965000152587891 4.00600004196167)" opacity="1" d="M8.79 2L11.93 2L11.93 8.01L0 8.01L0 2L3.13 2C3.55 0.84 4.66 0 5.96 0C7.27 0 8.38 0.84 8.79 2Z M2 6.01L2 4L4.96 4L4.96 3C4.96 2.45 5.41 2 5.96 2C6.51 2 6.96 2.45 6.96 3L6.96 4L9.93 4L9.93 6.01L2 6.01Z " /><path id="路径 49" fill-rule="evenodd" style="fill:#000000" transform="translate(5.991999626159668 16)  rotate(0 6.000000476837156 1)" opacity="1" d="M12 2L0 2L0 0L12 0L12 2Z" /><path id="路径 50" fill-rule="evenodd" style="fill:#000000" transform="translate(5.991999626159668 20)  rotate(0 6.000000476837156 1)" opacity="1" d="M12 2L0 2L0 0L12 0L12 2Z" /><path id="路径 51" fill-rule="evenodd" style="fill:#000000" transform="translate(5.991999626159668 24)  rotate(0 6.000000476837156 1)" opacity="1" d="M12 2L0 2L0 0L12 0L12 2Z" /><path id="路径 52" fill-rule="evenodd" style="fill:#000000" transform="translate(5.991999626159668 12)  rotate(0 2.500000000000001 1)" opacity="1" d="M5 2L0 2L0 0L5 0L5 2Z" /></g><path id="Gradient Overlay" fill-rule="evenodd" fill="url(#linear_0)" transform="translate(0 0)  rotate(0 12 16)" opacity="1" d="M17.9652 1.99969L14.8252 1.99969C14.4152 0.839695 13.3052 -0.000305176 11.9952 -0.000305176C10.6952 -0.000305176 9.58518 0.839695 9.16518 1.99969L6.03518 1.99969L6.03518 8.0097L17.9652 8.0097L17.9652 1.99969Z M15.9652 3.99969L12.9952 3.99969L12.9952 2.99969C12.9952 2.44969 12.5452 1.99969 11.9952 1.99969C11.4452 1.99969 10.9952 2.44969 10.9952 2.99969L10.9952 3.99969L8.03518 3.99969L8.03518 6.0097L15.9652 6.0097L15.9652 3.99969Z M0.000183105 3.99969L4.02018 3.99969L4.02018 5.99969L2.00018 5.99969L2.00018 29.9997L22.0002 29.9997L22.0002 5.99969L19.9202 5.99969L19.9202 3.99969L24.0002 3.99969L24.0002 31.9997L0.000183105 31.9997L0.000183105 3.99969Z M5.99218 13.9997L10.9922 13.9997L10.9922 11.9997L5.99218 11.9997L5.99218 13.9997Z M17.9922 17.9997L5.99218 17.9997L5.99218 15.9997L17.9922 15.9997L17.9922 17.9997Z M17.9922 21.9997L5.99218 21.9997L5.99218 19.9997L17.9922 19.9997L17.9922 21.9997Z M5.99218 25.9997L17.9922 25.9997L17.9922 23.9997L5.99218 23.9997L5.99218 25.9997Z " /></g></g></svg>