<svg xmlns="http://www.w3.org/2000/svg" xmlns:xlink="http://www.w3.org/1999/xlink" width="31.000563085079193" height="26.000109672546387" viewBox="0 0 31.000563085079193 26.000109672546387" fill="none"><defs><linearGradient id="linear_0" x1="50%" y1="100%" x2="51%" y2="0%" gradientUnits="objectBoundingBox"><stop offset="0" stop-color="#7075F5" stop-opacity="1" /><stop offset="1" stop-color="#EE9CFF" stop-opacity="1" /></linearGradient></defs><g opacity="1" transform="translate(0.00048828125 0.00010967254638671875)  rotate(0 15.500037401914597 13)"><g opacity="1" transform="translate(0 0)  rotate(0 15.500037401914597 13)"><g opacity="1" transform="translate(0 0.00019550323486328125)  rotate(0 15.499845713376997 12.99975347518921)"><path id="路径 35" fill-rule="evenodd" style="fill:#000000" transform="translate(0 0)  rotate(0 15.499845713376997 8.059162616729736)" opacity="1" d="M15.5 0L31 8.06L15.5 16.12L0 8.06L15.5 0Z M15.4971 2.2504L26.6771 8.0604L15.4971 13.8704L4.32711 8.0604L15.4971 2.2504Z " /><path id="路径 36" fill-rule="evenodd" style="fill:#000000" transform="translate(0.6863059401512142 12.121679306030272)  rotate(0 14.813026666641234 4.39878797531128)" opacity="1" d="M28.72 0L29.63 1.78L14.81 8.8L0 1.78L0.9 0L14.81 6.59L28.72 0Z" /><path id="路径 37" fill-rule="evenodd" style="fill:#000000" transform="translate(0.6863059401512142 17.20093631744385)  rotate(0 14.813026666641234 4.399285316467285)" opacity="1" d="M28.72 0L29.63 1.78L14.81 8.8L0 1.78L0.9 0L14.81 6.59L28.72 0Z" /></g><path id="Gradient Overlay" fill-rule="evenodd" fill="url(#linear_0)" transform="translate(0.00007480382919311523 0)  rotate(0 15.5 13)" opacity="1" d="M15.4994 -0.000109673L30.9994 8.05989L15.4994 16.1199L-0.000563085 8.05989L15.4994 -0.000109673Z M15.4966 2.2503L26.6765 8.0603L15.4966 13.8703L4.32655 8.0603L15.4966 2.2503Z M30.3157 13.9016L29.4057 12.1216L15.4957 18.7116L1.58574 12.1216L0.685743 13.9016L15.4957 20.9216L30.3157 13.9016Z M29.4057 17.2008L30.3157 18.9808L15.4957 26.0008L0.685743 18.9808L1.58574 17.2008L15.4957 23.7908L29.4057 17.2008Z " /></g></g></svg>