<svg xmlns="http://www.w3.org/2000/svg" xmlns:xlink="http://www.w3.org/1999/xlink" width="32.00030517578125" height="31.000206969678402" viewBox="0 0 32.00030517578125 31.000206969678402" fill="none"><defs><linearGradient id="linear_0" x1="50%" y1="100%" x2="51%" y2="0%" gradientUnits="objectBoundingBox"><stop offset="0" stop-color="#6085FF" stop-opacity="1" /><stop offset="1" stop-color="#54B7EB" stop-opacity="1" /></linearGradient></defs><g opacity="1" transform="translate(0 0.00010778754949569702)  rotate(0 16 15.500049591064453)"><g opacity="1" transform="translate(0 0)  rotate(0 16 15.500049591064453)"><g opacity="1" transform="translate(0 0.00019738823175430298)  rotate(0 16 15.499950896948578)"><path id="路径 41" fill-rule="evenodd" style="fill:#000000" transform="translate(0 0)  rotate(0 16 15.499950896948578)" opacity="1" d="M0 15.57C0 6.99 7.18 0 16 0C24.82 0 32 6.99 32 15.57C32 23.35 26.04 29.98 18.13 31L17.87 29.07C24.78 28.18 30 22.38 30 15.57C30 8.06 23.72 1.95 16 1.95C8.28 1.95 2 8.06 2 15.57C2 22.38 7.22 28.18 14.13 29.07L13.87 31C5.96 29.98 0 23.35 0 15.57Z" /><path id="路径 42" fill-rule="evenodd" style="fill:#000000" transform="translate(10 4.730134509503841)  rotate(0 6 6.798352003097532)" opacity="1" d="M2 5.84L0 5.84C0 2.62 2.69 0 6 0C9.31 0 12 2.62 12 5.84C12 8.73 9.83 11.13 7 11.6L7 13.6L5 13.6L5 9.73L6 9.73C8.21 9.73 10 7.99 10 5.84C10 3.69 8.21 1.95 6 1.95C3.79 1.95 2 3.69 2 5.84Z" /><path id="路径 43" fill-rule="evenodd" style="fill:#000000" transform="translate(13 20.302596114575866)  rotate(0 3 2.91983604431152)" opacity="1" d="M3 0C4.65 0 6 1.31 6 2.92C6 4.53 4.65 5.84 3 5.84C1.35 5.84 0 4.53 0 2.92C0 1.31 1.35 0 3 0Z M4 2.91656C4 3.45656 3.55 3.89656 3 3.89656C2.45 3.89656 2 3.45656 2 2.91656C2 2.38656 2.45 1.94656 3 1.94656C3.55 1.94656 4 2.38656 4 2.91656Z " /></g><path id="Gradient Overlay" fill-rule="evenodd" fill="url(#linear_0)" transform="translate(0 0)  rotate(0 16 15.5)" opacity="1" d="M17.8703 29.0699L18.1303 30.9999C26.0403 29.9799 32.0003 23.3499 32.0003 15.5699C32.0003 6.98989 24.8203 -0.000107788 16.0003 -0.000107788C7.18031 -0.000107788 0.000305176 6.98989 0.000305176 15.5699C0.000305176 23.3499 5.96031 29.9799 13.8703 30.9999L14.1303 29.0699C7.2203 28.1799 2.00031 22.3799 2.00031 15.5699C2.00031 8.05989 8.2803 1.94989 16.0003 1.94989C23.7203 1.94989 30.0003 8.05989 30.0003 15.5699C30.0003 22.3799 24.7803 28.1799 17.8703 29.0699Z M16.0003 14.46L15.0003 14.46L15.0003 18.33L17.0003 18.33L17.0003 16.33C19.8303 15.86 22.0003 13.46 22.0003 10.57C22.0003 7.35003 19.3103 4.73003 16.0003 4.73003C12.6903 4.73003 10.0003 7.35003 10.0003 10.57L12.0003 10.57C12.0003 8.42003 13.7903 6.68003 16.0003 6.68003C18.2103 6.68003 20.0003 8.42003 20.0003 10.57C20.0003 12.72 18.2103 14.46 16.0003 14.46Z M19.0003 23.2225C19.0003 21.6125 17.6503 20.3025 16.0003 20.3025C14.3503 20.3025 13.0003 21.6125 13.0003 23.2225C13.0003 24.8325 14.3503 26.1425 16.0003 26.1425C17.6503 26.1425 19.0003 24.8325 19.0003 23.2225Z M16.0003 24.199C16.5503 24.199 17.0003 23.759 17.0003 23.219C17.0003 22.689 16.5503 22.249 16.0003 22.249C15.4503 22.249 15.0003 22.689 15.0003 23.219C15.0003 23.759 15.4503 24.199 16.0003 24.199Z " /></g></g></svg>