<svg xmlns="http://www.w3.org/2000/svg" xmlns:xlink="http://www.w3.org/1999/xlink" width="28.00006103515625" height="32.00030517578125" viewBox="0 0 28.00006103515625 32.00030517578125" fill="none"><defs><linearGradient id="linear_0" x1="50%" y1="100%" x2="51%" y2="0%" gradientUnits="objectBoundingBox"><stop offset="0" stop-color="#F04D70" stop-opacity="1" /><stop offset="1" stop-color="#FFA3D2" stop-opacity="1" /></linearGradient></defs><g opacity="1" transform="translate(0 0.00030517578125)  rotate(0 14 16)"><g opacity="1" transform="translate(0 0)  rotate(0 14 16)"><g opacity="1" transform="translate(0 0)  rotate(0 14 16)"><g opacity="1" transform="translate(0 0)  rotate(0 14 16)"><path id="路径 59" fill-rule="evenodd" style="fill:#000000" transform="translate(0 0)  rotate(0 14 16)" opacity="1" d="M6 0L28 0L28 32L0 32L0 6L2 6L2 30L26 30L26 2L6 2L6 0Z" /><path id="路径 60" fill-rule="evenodd" style="fill:#000000" transform="translate(5 22)  rotate(0 9 1)" opacity="1" d="M18 2L0 2L0 0L18 0L18 2Z" /><path id="路径 61" fill-rule="evenodd" style="fill:#000000" transform="translate(5 26)  rotate(0 9 1)" opacity="1" d="M18 2L0 2L0 0L18 0L18 2Z" /><path id="路径 62" fill-rule="evenodd" style="fill:#000000" transform="translate(10 4)  rotate(0 4 4)" opacity="1" d="M4 0C6.21 0 8 1.8 8 4C8 6.21 6.21 8 4 8C1.79 8 0 6.21 0 4C0 1.8 1.79 0 4 0Z M6 4C6 5.1 5.1 6 4 6C2.9 6 2 5.1 2 4C2 2.9 2.9 2 4 2C5.1 2 6 2.9 6 4Z " /><path id="路径 63" fill-rule="evenodd" style="fill:#000000" transform="translate(7.791999816894531 12.0629997253418)  rotate(0 6.211000442504885 3.9685001373291)" opacity="1" d="M1.33 0.94L3.86 0L4.56 1.88L3.09 2.42L2.42 5.94L9.99 5.94L9.33 2.51L7.81 1.85L8.6 0.02L11.09 1.1L12.42 7.94L0 7.94L1.33 0.94Z" /></g></g><path id="Gradient Overlay" fill-rule="evenodd" fill="url(#linear_0)" transform="translate(0 0)  rotate(0 14 16)" opacity="1" d="M6.10352e-05 31.9997L6.10352e-05 5.99969L2.00006 5.99969L2.00006 29.9997L26.0001 29.9997L26.0001 1.99969L6.00006 1.99969L6.00006 -0.000305176L28.0001 -0.000305176L28.0001 31.9997L6.10352e-05 31.9997Z M18.0001 7.99969C18.0001 5.7997 16.2101 3.99969 14.0001 3.99969C11.7901 3.99969 10.0001 5.7997 10.0001 7.99969C10.0001 10.2097 11.7901 11.9997 14.0001 11.9997C16.2101 11.9997 18.0001 10.2097 18.0001 7.99969Z M14.0001 9.99969C15.1001 9.99969 16.0001 9.0997 16.0001 7.99969C16.0001 6.89969 15.1001 5.99969 14.0001 5.99969C12.9001 5.99969 12.0001 6.89969 12.0001 7.99969C12.0001 9.0997 12.9001 9.99969 14.0001 9.99969Z M17.7821 18.0027L17.1221 14.5727L15.6021 13.9127L16.3921 12.0827L18.8821 13.1627L20.2121 20.0027L7.79206 20.0027L9.12206 13.0027L11.6521 12.0627L12.3521 13.9427L10.8821 14.4827L10.2121 18.0027L17.7821 18.0027Z M5.00006 23.9997L5.00006 21.9997L23.0001 21.9997L23.0001 23.9997L5.00006 23.9997Z M23.0001 25.9997L23.0001 27.9997L5.00006 27.9997L5.00006 25.9997L23.0001 25.9997Z " /></g></g></svg>