<?xml version="1.0" encoding="UTF-8"?>
<svg width="45px" height="47px" viewBox="0 0 45 47" version="1.1" xmlns="http://www.w3.org/2000/svg" xmlns:xlink="http://www.w3.org/1999/xlink">
    <title>暂无内容</title>
    <g id="状态icon" stroke="none" stroke-width="1" fill="none" fill-rule="evenodd">
        <g id="首页" transform="translate(-521.000000, -459.000000)" fill="#95ABD6" fill-rule="nonzero">
            <g id="暂无内容" transform="translate(521.000000, 459.000000)">
                <path d="M10.4946216,18.7219957 L32.5007232,18.7219957 C33.1028968,18.7219957 33.5937174,18.2313006 33.5937174,17.6254923 C33.5937174,17.0201384 33.1033508,16.5317657 32.5007232,16.5317657 L10.4946216,16.5317657 C9.886343,16.5317657 9.39885233,17.0225113 9.39885233,17.6254923 C9.39885233,18.2284732 9.886343,18.7219957 10.4946216,18.7219957 Z" id="路径"></path>
                <path d="M24.1511211,44.7740748 L2.18876346,44.7740748 L2.18876346,7.94114254 L7.8414251,7.94114254 C8.44682776,7.94114254 8.93719433,7.44999302 8.93719433,6.84463912 C8.93719433,6.23878033 8.44637367,5.75091255 7.8414251,5.75091255 L2.18871301,5.75091255 C0.981136772,5.75091255 0,6.73275719 0,7.94109205 L0,44.7712475 C0,45.9768055 0.981136772,46.9585996 2.18871301,46.9585996 L24.1919892,46.9585996 C25.3577387,46.5938727 25.3065275,45.2327604 24.1511211,44.7740748 Z M12.806847,8.00879677 L30.1828468,8.00879677 C30.7877954,8.00879677 31.2786161,7.51764725 31.2786161,6.91512069 C31.2786161,6.31259413 30.7877954,5.81861727 30.1828468,5.81861727 L26.8274257,5.81861727 C26.842007,5.67149456 26.8654683,5.52487673 26.8654683,5.37492668 C26.8654683,2.41066161 24.4564713,0 21.4945946,0 C18.5360985,0 16.1237714,2.41066161 16.1237714,5.37447229 C16.1237714,5.52719919 16.1472832,5.67149456 16.1651441,5.81816287 L12.8068975,5.81816287 C12.2014443,5.81816287 11.7110778,6.30931239 11.7110778,6.91466629 C11.7110778,7.52052508 12.2014443,8.00879677 12.806847,8.00879677 Z M21.4945946,2.19022999 C23.2517205,2.19022999 24.6739299,3.61904695 24.6739299,5.37447229 C24.6739299,5.53048093 24.6387127,5.67149456 24.6180264,5.81816287 L18.3744929,5.81816287 C18.3510316,5.67104016 18.3129385,5.53002653 18.3129385,5.37447229 C18.3129385,3.61899647 19.7407988,2.1901795 21.4945946,2.1901795 L21.4945946,2.19022999 Z M42.9930238,7.94114254 C42.9897443,6.7323028 42.0085571,5.75096304 40.8043108,5.75096304 L35.2366649,5.75096304 C34.6312118,5.75096304 34.1465466,6.24160767 34.1465466,6.84746646 C34.1465466,7.45282036 34.6312622,7.94396988 35.2366649,7.94396988 L40.8043108,7.94396988 L40.8043108,24.2026952 C40.9771677,25.6728115 42.5900443,26.0172928 42.9930238,24.439485 L42.9930238,7.94119303 L42.9930238,7.94114254 Z" id="形状"></path>
                <path d="M20.6144172,35.3538795 L10.4946216,35.3538795 C9.886343,35.3538795 9.39885233,35.8478059 9.39885233,36.4508374 C9.39885233,37.0533639 9.88684754,37.5473408 10.4946216,37.5473408 L20.6144172,37.5473408 C21.1855613,37.4533317 21.6533747,37.040237 21.6637179,36.4508374 C21.6637179,35.7646518 21.0559439,35.4262292 20.6144172,35.3538795 L20.6144172,35.3538795 Z M25.2802912,27.7572687 C25.5898291,27.5020507 26.0125362,26.1818339 24.966061,25.9425702 L10.4946216,25.9425702 C9.886343,25.9425702 9.39885233,26.436547 9.39885233,27.0395785 C9.39885233,27.6426099 9.88684754,28.1360819 10.4946216,28.1360819 L24.6504181,28.1360819 C24.773981,28.0796865 24.7809942,28.1690002 25.2802912,27.7572687 L25.2802912,27.7572687 Z M41.8671838,28.7287633 C39.8470895,26.7072649 37.1614508,25.593848 34.3038635,25.593848 C31.4467807,25.593848 28.7606375,26.7072649 26.7409972,28.7287633 C24.7203984,30.7502111 23.608181,33.4376492 23.608181,36.2966968 C23.608181,39.1556939 24.7203984,41.8436369 26.7409972,43.8650847 C28.7610916,45.8865325 31.4467807,47 34.3038635,47 C37.1609463,47 39.8466354,45.8865325 41.8671838,43.8650847 C43.8873285,41.8436369 45,39.1561483 45,36.2966968 C44.9994955,33.4381541 43.886824,30.7506655 41.8671838,28.7287633 Z M25.4582944,36.2966968 C25.4582944,31.415747 29.4266359,27.4452009 34.3038635,27.4452009 C39.1815451,27.4452009 43.1494326,31.415747 43.1494326,36.2966968 C43.1494326,41.1776466 39.1815451,45.148647 34.3038635,45.148647 C29.4266359,45.148647 25.4582944,41.1776466 25.4582944,36.2966968 M40.4266594,35.3717524 L35.2291472,35.3717524 L35.2291472,30.1706567 C35.2291472,29.6593119 34.8149163,29.244753 34.3038635,29.244753 C33.792861,29.244753 33.3785797,29.658807 33.3785797,30.1706567 L33.3785797,36.2971007 C33.3785797,36.8084455 33.7928106,37.2234588 34.3039139,37.2234588 L40.4266594,37.2234588 C40.9377123,37.2234588 41.3514891,36.8089504 41.3514891,36.2971007 C41.3514891,35.7857559 40.9377123,35.3716514 40.4266594,35.3716514 L40.4266594,35.3717524 Z" id="形状"></path>
            </g>
        </g>
    </g>
</svg>