<?xml version="1.0" standalone="no"?><!DOCTYPE svg PUBLIC "-//W3C//DTD SVG 1.1//EN" "http://www.w3.org/Graphics/SVG/1.1/DTD/svg11.dtd"><svg t="1632072009225" class="icon" viewBox="0 0 1024 1024" version="1.1" xmlns="http://www.w3.org/2000/svg" p-id="16135" xmlns:xlink="http://www.w3.org/1999/xlink" width="200" height="200"><defs><style type="text/css"></style></defs><path d="M813.714286 1022.537143h-603.428572A137.508571 137.508571 0 0 1 73.142857 884.662857V209.554286a137.508571 137.508571 0 0 1 137.142857-137.874286H292.571429v73.142857h-82.285715A64.548571 64.548571 0 0 0 146.285714 209.554286v675.108571a64.548571 64.548571 0 0 0 64 64.731429h603.428572a64.548571 64.548571 0 0 0 64-64.731429V209.554286a64.548571 64.548571 0 0 0-64-64.731429h-85.577143v-73.142857h85.577143a137.508571 137.508571 0 0 1 137.142857 137.874286v675.108571a137.508571 137.508571 0 0 1-137.142857 137.874286z" p-id="16136" fill="#1296db"></path><path d="M694.857143 74.605714v73.142857H329.142857v-73.142857h365.714286m0-73.142857H329.142857a73.142857 73.142857 0 0 0-73.142857 73.142857v73.142857a73.142857 73.142857 0 0 0 73.142857 73.142858h365.714286a73.142857 73.142857 0 0 0 73.142857-73.142858v-73.142857a73.142857 73.142857 0 0 0-73.142857-73.142857zM475.428571 402.285714H256a36.571429 36.571429 0 0 1 0-73.142857h219.428571a36.571429 36.571429 0 0 1 0 73.142857zM768 592.822857H256a36.571429 36.571429 0 0 1 0-73.142857h512a36.571429 36.571429 0 0 1 0 73.142857zM768 783.908571H256a36.571429 36.571429 0 0 1 0-73.142857h512a36.571429 36.571429 0 0 1 0 73.142857z" p-id="16137" fill="#1296db"></path></svg>