<?xml version="1.0" standalone="no"?><!DOCTYPE svg PUBLIC "-//W3C//DTD SVG 1.1//EN" "http://www.w3.org/Graphics/SVG/1.1/DTD/svg11.dtd"><svg t="1632071910079" class="icon" viewBox="0 0 1024 1024" version="1.1" xmlns="http://www.w3.org/2000/svg" p-id="1237" xmlns:xlink="http://www.w3.org/1999/xlink" width="200" height="200"><defs><style type="text/css"></style></defs><path d="M548.522544 581.191385a409.355922 409.355922 0 0 0-29.998114 150.949996l-33.196207 18.804787a95.942794 95.942794 0 0 1-92.744701 0.831505L17.063426 548.698758a31.980931 31.980931 0 0 1-0.447733-56.030591l64.153748-36.010529a31.980931 31.980931 0 0 1 31.277351 0l281.304273 157.346182a95.942794 95.942794 0 0 0 92.105082 0.895466l63.002435-33.707901z m-14.07161 267.744357a410.635159 410.635159 0 0 0 48.291206 107.200082l-97.413917 55.007202a95.942794 95.942794 0 0 1-92.744701 0.831504l-375.456134-203.078914a31.980931 31.980931 0 0 1-0.447733-55.96663l64.153748-36.07449a31.980931 31.980931 0 0 1 31.277351 0l281.304272 157.346182a95.942794 95.942794 0 0 0 92.105083 0.895466l48.866863-26.160402zM485.584071 11.483073l375.520096 202.119486a31.980931 31.980931 0 0 1 0.575657 56.030592L485.328223 482.178421a95.942794 95.942794 0 0 1-92.744701 0.831504L17.063426 279.931011a31.980931 31.980931 0 0 1-0.447733-56.030592L393.159179 12.378539A95.942794 95.942794 0 0 1 485.648033 11.483073z m429.695794 849.093728c-63.578092 53.408155-157.857877 50.785719-216.830715-8.25108-62.426778-62.362816-61.787159-164.254064 1.471123-227.512346 63.322244-63.322244 165.14953-63.961863 227.576307-1.535085 59.036799 58.972837 61.595274 153.252623 8.315043 216.830715a31.980931 31.980931 0 0 1 32.940359 7.675424l45.157075 45.157075a31.980931 31.980931 0 0 1 0 45.221037l-0.639619 0.639618a31.980931 31.980931 0 0 1-45.157075 0l-45.157075-45.221037a31.980931 31.980931 0 0 1-7.675423-33.004321z m-34.539406-55.007202c37.993346-37.929385 38.377118-99.076925 0.959428-136.494615a96.582413 96.582413 0 0 0-136.558577 0.895466 96.582413 96.582413 0 0 0-0.895466 136.558577 96.582413 96.582413 0 0 0 136.494615-0.895466z" p-id="1238" fill="#1296db"></path></svg>