<?xml version="1.0" standalone="no"?><!DOCTYPE svg PUBLIC "-//W3C//DTD SVG 1.1//EN" "http://www.w3.org/Graphics/SVG/1.1/DTD/svg11.dtd"><svg t="1632071986748" class="icon" viewBox="0 0 1024 1024" version="1.1" xmlns="http://www.w3.org/2000/svg" p-id="15214" xmlns:xlink="http://www.w3.org/1999/xlink" width="200" height="200"><defs><style type="text/css"></style></defs><path d="M512 1024C230.4 1024 0 793.6 0 512S230.4 0 512 0s512 230.4 512 512-230.4 512-512 512z m0-960C265.6 64 64 265.6 64 512s201.6 448 448 448 448-201.6 448-448S758.4 64 512 64z" p-id="15215" fill="#1296db"></path><path d="M630.4 313.6c28.8 25.6 41.6 57.6 41.6 99.2 0 35.2-9.6 64-25.6 86.4-6.4 9.6-25.6 25.6-60.8 54.4-12.8 12.8-22.4 22.4-28.8 35.2-6.4 12.8-12.8 28.8-12.8 48v12.8h-76.8v-12.8c0-25.6 3.2-48 12.8-67.2 9.6-19.2 35.2-48 80-86.4l12.8-12.8c12.8-16 19.2-32 19.2-51.2 0-22.4-6.4-41.6-19.2-57.6-12.8-12.8-35.2-22.4-57.6-22.4-32 0-54.4 9.6-70.4 28.8-12.8 16-19.2 41.6-19.2 73.6H352c0-51.2 16-92.8 44.8-121.6 28.8-28.8 70.4-44.8 121.6-44.8 48 0 83.2 12.8 112 38.4zM544 700.8c9.6 9.6 16 22.4 16 35.2 0 16-6.4 25.6-16 35.2-9.6 9.6-22.4 12.8-38.4 12.8s-25.6-6.4-35.2-16c-9.6-9.6-16-22.4-16-35.2 0-16 6.4-25.6 16-35.2 9.6-9.6 22.4-12.8 35.2-12.8 16 3.2 28.8 6.4 38.4 16z" p-id="15216" fill="#1296db"></path></svg>