<svg xmlns="http://www.w3.org/2000/svg" xmlns:xlink="http://www.w3.org/1999/xlink" width="18.666666681250007" height="19.599999978125" viewBox="0 0 18.666666681250007 19.599999978125" fill="none"><defs><rect id="path_0" x="0" y="0" width="18.66666668125" height="19.599999978125" /></defs><g opacity="1" transform="translate(0 0)  rotate(0 9.333333340625 9.7999999890625)"><mask id="bg-mask" fill="white"><use xlink:href="#path_0"></use></mask><g mask="url(#bg-mask)" ><g opacity="1" transform="translate(0 0)  rotate(0 9.333333340625 9.7999999890625)"><path id="路径 1" fill-rule="evenodd" style="fill:#14D081" transform="translate(0 0)  rotate(0 9.333333340625 7.933333329687501)" opacity="1" d="M0.93,14C0.42,14 0,14.42 0,14.93C0,15.45 0.42,15.87 0.93,15.87L17.73,15.87C18.25,15.87 18.67,15.45 18.67,14.93C18.67,14.42 18.25,14 17.73,14L16.8,14L16.8,7.47C16.8,3.35 13.45,0 9.33,0C5.21,0 1.87,3.35 1.87,7.47L1.87,14L0.93,14Z " /><path id="路径 2" fill-rule="evenodd" style="fill:#14D081" transform="translate(6.5334762275233205 17.73333331875)  rotate(0 2.7998571131016803 0.9333333296875004)" opacity="1" d="M0,0.93C0,1.45 0.42,1.87 0.93,1.87L4.67,1.87C5.18,1.87 5.6,1.45 5.6,0.93C5.6,0.42 5.18,0 4.67,0L0.93,0C0.42,0 0,0.42 0,0.93Z " /></g></g></g></svg>