<?xml version="1.0" standalone="no"?><!DOCTYPE svg PUBLIC "-//W3C//DTD SVG 1.1//EN" "http://www.w3.org/Graphics/SVG/1.1/DTD/svg11.dtd"><svg t="1632067359322" class="icon" viewBox="0 0 1024 1024" version="1.1" xmlns="http://www.w3.org/2000/svg" p-id="11924" xmlns:xlink="http://www.w3.org/1999/xlink" width="200" height="200"><defs><style type="text/css"></style></defs><path d="M743.914 632.86l154.544-200.915-243.131-71.724-143.328-209.055-143.328 209.062-243.131 71.714 154.544 200.907-6.929 253.39 238.843-84.889 238.843 84.895-6.929-253.39zM512 883.789l-260.963 92.764c-32.373 11.503-57.867-6.913-56.918-41.354l7.573-276.855-168.86-219.533c-20.948-27.232-11.309-57.167 21.741-66.907l265.639-78.355 156.61-228.434c19.425-28.327 50.876-28.413 70.355 0l156.603 228.434 265.646 78.355c32.956 9.716 42.742 39.597 21.741 66.907l-168.86 219.533 7.573 276.855c0.932 34.348-24.451 52.895-56.918 41.354l-260.963-92.764z" fill="#4990EE" p-id="11925"></path></svg>