<?xml version="1.0" standalone="no"?><!DOCTYPE svg PUBLIC "-//W3C//DTD SVG 1.1//EN" "http://www.w3.org/Graphics/SVG/1.1/DTD/svg11.dtd"><svg t="1632067274237" class="icon" viewBox="0 0 1024 1024" version="1.1" xmlns="http://www.w3.org/2000/svg" p-id="11088" xmlns:xlink="http://www.w3.org/1999/xlink" width="200" height="200"><defs><style type="text/css"></style></defs><path d="M647.5776 633.5488m-145.1008 0a145.1008 145.1008 0 1 0 290.2016 0 145.1008 145.1008 0 1 0-290.2016 0Z" fill="#DCEDFF" p-id="11089"></path><path d="M818.2784 633.5488c0-94.1056-76.5952-170.7008-170.7008-170.7008s-170.7008 76.5952-170.7008 170.7008 76.5952 170.7008 170.7008 170.7008c35.84 0 69.1712-11.1616 96.6656-30.1056l121.8048 120.5248 35.9936-36.4032-120.4736-119.1936c22.9376-29.0304 36.7104-65.6896 36.7104-105.5232z m-170.752 119.552c-65.8944 0-119.5008-53.6064-119.5008-119.5008s53.6064-119.5008 119.5008-119.5008 119.5008 53.6064 119.5008 119.5008-53.6064 119.5008-119.5008 119.5008z" fill="#5B90EF" p-id="11090"></path><path d="M876.0832 105.984H156.2624c-25.3952 0-46.08 20.6848-46.08 46.08v719.872c0 25.3952 20.6848 46.08 46.08 46.08h494.592v-51.2h-489.472V157.184h709.632v479.232h51.2V152.064c-0.0512-25.3952-20.6848-46.08-46.1312-46.08z" fill="#5B90EF" p-id="11091"></path><path d="M252.7744 284.5184h467.968v51.2h-467.968zM252.7744 499.456h179.0976v51.2H252.7744zM252.7744 678.5536h179.0976v51.2H252.7744z" fill="#5B90EF" p-id="11092"></path></svg>